<svg width="33" height="36" viewBox="0 0 33 36" xmlns="http://www.w3.org/2000/svg">
    <g fill="#FFF" fill-rule="evenodd">
        <path d="M22.943 15.775v8.48a16.11 16.11 0 0 1-1.045-.138c-1.616-.264-3.478-1.07-5.398-1.868-1.273-.531-2.572-1.057-3.84-1.416a16.074 16.074 0 0 0-2.602-.495v-8.482c.986.109 1.873.287 2.601.495 1.27.359 2.568.885 3.841 1.415 1.92.798 3.782 1.604 5.398 1.87.353.058.701.105 1.045.14M22.943 27.518V36a17.03 17.03 0 0 1-1.045-.14c-1.616-.264-3.478-1.07-5.398-1.869-1.273-.53-2.572-1.055-3.84-1.415a15.886 15.886 0 0 0-2.602-.494V23.6c.986.109 1.873.288 2.601.494 1.27.361 2.568.887 3.841 1.416 1.92.797 3.782 1.604 5.398 1.868.353.059.701.104 1.045.14M33 1.442v8.48c-2.322 1.8-5.862 3.017-10.057 2.59a17.03 17.03 0 0 1-1.045-.139c-1.616-.264-3.478-1.071-5.397-1.868-1.274-.53-2.573-1.057-3.842-1.415a16.074 16.074 0 0 0-2.6-.495C7.04 8.259 3.1 8.58 0 10.772V2.29C3.101.098 7.041-.222 10.058.113a16.02 16.02 0 0 1 2.601.494c1.269.36 2.568.886 3.842 1.415 1.919.797 3.78 1.604 5.397 1.87.353.059.701.104 1.045.139 4.195.425 7.735-.792 10.057-2.589"/>
    </g>
</svg>
