<svg width="20" height="16" viewBox="0 0 20 16" xmlns="http://www.w3.org/2000/svg">
    <path d="M15.871 16c1.161 0 2.14-.392 2.935-1.175.796-.783 1.194-1.746 1.194-2.888 0-1.228-.398-2.212-1.194-2.953-.795-.74-1.774-1.111-2.935-1.111-.903 0-1.699.275-2.387.825-.13-.38-.194-.825-.194-1.333 0-1.227.484-2.434 1.452-3.619s2.118-2.053 3.452-2.603L17.613 0c-2.237 1.016-3.903 2.37-5 4.063-1.097 1.694-1.645 3.598-1.645 5.715 0 1.65.365 3.047 1.097 4.19.86 1.355 2.129 2.032 3.806 2.032zM4.903 16c1.162 0 2.14-.392 2.936-1.175.795-.783 1.193-1.746 1.193-2.888 0-1.228-.398-2.212-1.193-2.953-.796-.74-1.774-1.111-2.936-1.111-.903 0-1.699.275-2.387.825-.129-.38-.193-.825-.193-1.333 0-1.227.483-2.434 1.451-3.619.968-1.185 2.118-2.053 3.452-2.603L6.646 0c-2.237 1.016-3.904 2.37-5 4.063C.547 5.757 0 7.661 0 9.778c0 1.65.366 3.047 1.097 4.19C1.957 15.323 3.226 16 4.903 16z" fill="#0D1E30" fill-rule="nonzero"/>
</svg>
