<svg width="19" height="15" viewBox="0 0 19 15" xmlns="http://www.w3.org/2000/svg">
    <path d="M17.055 3.736c.007.162.011.326.011.49C17.066 9.232 13.146 15 5.976 15c-2.201 0-4.25-.626-5.976-1.7.305.034.615.052.93.052a7.967 7.967 0 0 0 4.841-1.621c-1.706-.03-3.145-1.126-3.64-2.63a4.03 4.03 0 0 0 1.76-.064C2.106 8.688.763 7.158.763 5.324v-.048a3.981 3.981 0 0 0 1.765.473C1.484 5.07.796 3.911.796 2.598c0-.695.192-1.345.527-1.905A11.179 11.179 0 0 0 9.357 4.65a3.727 3.727 0 0 1-.1-.863C9.257 1.696 11 0 13.155 0 14.276 0 15.289.46 16 1.197a7.947 7.947 0 0 0 2.475-.92 3.816 3.816 0 0 1-1.714 2.095A7.945 7.945 0 0 0 19 1.776a7.804 7.804 0 0 1-1.945 1.96" fill="#FFF" fill-rule="nonzero"/>
</svg>
