<svg width="100" height="25" viewBox="0 0 100 25" xmlns="http://www.w3.org/2000/svg">
    <g fill="#0D1E30" fill-rule="nonzero">
        <path d="M33.24 16.82c1.348.995 3.144 1.513 4.916 1.513 1.308 0 2.136-.498 2.136-1.253-.02-2.11-7.836-.458-7.896-5.75-.02-2.687 2.396-4.758 5.82-4.758 2.036 0 4.068.498 5.52 1.632l-1.168 2.925c-1.328-.838-2.98-1.435-4.552-1.435-1.068 0-1.772.498-1.772 1.134.02 2.071 7.896.937 7.976 5.991 0 2.747-2.356 4.68-5.74 4.68-2.48-.004-4.756-.581-6.488-1.814l1.248-2.866zm46.676-1.036a3.63 3.63 0 0 1-3.144 1.81c-1.996 0-3.604-1.593-3.604-3.56 0-1.969 1.612-3.561 3.604-3.561 1.348 0 2.52.735 3.144 1.81l3.444-1.89a7.59 7.59 0 0 0-6.588-3.82c-4.172 0-7.556 3.342-7.556 7.464s3.384 7.466 7.556 7.466c2.84 0 5.3-1.534 6.588-3.822l-3.444-1.897zM45.952.38h4.312v20.839h-4.312V.379zm39.1 0v20.839h4.312v-6.252l5.116 6.252H100l-6.508-7.426 6.024-6.927h-5.28l-4.876 5.75V.379h-4.308zM63.076 15.824c-.624 1.015-1.912 1.77-3.364 1.77-1.996 0-3.604-1.593-3.604-3.56 0-1.969 1.612-3.561 3.604-3.561 1.452 0 2.74.794 3.364 1.83v3.52zm0-8.956V8.56c-.704-1.174-2.456-1.992-4.292-1.992-3.788 0-6.768 3.304-6.768 7.446 0 4.141 2.98 7.485 6.768 7.485 1.832 0 3.584-.815 4.292-1.992v1.691h4.312V6.868h-4.312zM5.34 15.804c0 1.454-1.188 2.628-2.66 2.628-1.472 0-2.66-1.178-2.66-2.628 0-1.45 1.188-2.628 2.66-2.628h2.66v2.628zm1.328 0c0-1.454 1.188-2.628 2.66-2.628 1.472 0 2.66 1.174 2.66 2.628v6.568c0 1.454-1.188 2.628-2.66 2.628-1.472 0-2.66-1.174-2.66-2.628v-6.568zM9.328 5.256c-1.472 0-2.66-1.174-2.66-2.628C6.668 1.174 7.856 0 9.328 0c1.472 0 2.66 1.174 2.66 2.628v2.628h-2.66zm0 1.332c1.472 0 2.66 1.174 2.66 2.628 0 1.454-1.188 2.628-2.66 2.628H2.66C1.188 11.844 0 10.666 0 9.216c0-1.45 1.188-2.628 2.66-2.628h6.668zM19.984 9.216c0-1.454 1.188-2.628 2.66-2.628 1.472 0 2.66 1.174 2.66 2.628 0 1.454-1.188 2.628-2.66 2.628h-2.66V9.216zm-1.328 0c0 1.454-1.188 2.628-2.66 2.628-1.472 0-2.66-1.174-2.66-2.628V2.628c0-1.454 1.188-2.628 2.66-2.628 1.472 0 2.66 1.174 2.66 2.628v6.588zM15.996 19.744c1.472 0 2.66 1.174 2.66 2.628 0 1.454-1.188 2.628-2.66 2.628-1.472 0-2.66-1.174-2.66-2.628v-2.628h2.66zm0-1.312c-1.472 0-2.66-1.174-2.66-2.628 0-1.454 1.188-2.628 2.66-2.628h6.668c1.472 0 2.66 1.174 2.66 2.628 0 1.454-1.188 2.628-2.66 2.628h-6.668z"/>
    </g>
</svg>
