<svg width="131" height="25.736" viewBox="0 0 131 25.736" xmlns="http://www.w3.org/2000/svg">
    <g fill="#0D1E30" fill-rule="nonzero">
        <path d="M32.366 8.674h-.05V7.31h-3.573v12.884h3.804v-7.078c0-1.952 1.234-2.318 3-2.369V6.864c-2.197 0-2.86 1.19-3.18 1.81zM67.793 8.674h-.05V7.31H64.17v12.884h3.804v-7.078c0-1.952 1.234-2.318 3-2.369V6.864c-2.197 0-2.86 1.19-3.18 1.81zM47.019 7.982c-.683-.6-2.038-1.118-3.252-1.118-2.268 0-3.071 1.18-3.462 1.81h-.05V7.31h-3.553v12.884h3.803v-7.006c0-.794 0-2.695 2.178-2.695 1.997 0 1.997 1.77 1.997 2.674v7.037h3.804V12.15c0-2.542-.783-3.569-1.465-4.169zM131 13.89c0-3.925-2.84-7.036-6.714-7.036-3.874 0-6.664 3.314-6.664 6.914 0 3.834 3.091 6.823 6.734 6.823 1.305 0 2.57-.396 3.623-1.159 1.074-.742 1.967-1.86 2.59-3.295h-3.895c-.531.671-1.144 1.21-2.318 1.21-1.485 0-2.75-.905-2.98-2.44h9.534c.05-.295.09-.508.09-1.017zm-9.574-1.576c.16-.763.913-2.207 2.89-2.207s2.73 1.444 2.89 2.207h-5.78zM114.993 7.972c-.693-.6-2.038-1.118-3.262-1.118-2.268 0-3.071 1.19-3.463 1.81h-.05V7.32h-3.552v12.884h3.803v-7.016c0-.794 0-2.695 2.178-2.695 1.997 0 1.997 1.77 1.997 2.674v7.047h3.804V12.15c.01-2.552-.773-3.569-1.455-4.179zM84.162 7.311h-1.877v2.918h1.877v9.966h3.804v-9.966h1.826V7.311h-1.826V3.976l-3.804 2.217zM77.287 12.192c-1.003-.305-1.947-.691-1.947-1.393 0-.346.271-.854 1.074-.854 1.124 0 1.164.691 1.184.976h3.724C81 7.535 78.12 6.864 76.454 6.864c-2.63 0-4.917 1.688-4.917 4.24 0 1.739 1.375 2.827 3.02 3.356 2.42.945 3.363 1.067 3.363 2.064 0 .62-.683.996-1.325.996-.16 0-1.285 0-1.435-1.18h-3.774c.341 3.387 3.242 4.261 5.169 4.261 2.81 0 5.168-1.667 5.168-4.372 0-2.786-2.288-3.437-4.436-4.037zM96.667 6.874c-4.637 0-6.855 3.691-6.855 6.853 0 3.163 2.228 6.854 6.855 6.854 4.636 0 6.854-3.691 6.854-6.854 0-3.162-2.228-6.853-6.854-6.853zm0 10.107c-1.656 0-3.051-1.372-3.051-3.254 0-1.88 1.395-3.253 3.05-3.253 1.657 0 3.052 1.372 3.052 3.253 0 1.882-1.405 3.254-3.051 3.254zM63.016 13.89c0-3.925-2.84-7.036-6.714-7.036-3.874 0-6.664 3.314-6.664 6.914 0 3.834 3.091 6.823 6.734 6.823 1.305 0 2.57-.396 3.623-1.159 1.074-.742 1.967-1.86 2.59-3.295H58.69c-.532.671-1.145 1.21-2.319 1.21-1.485 0-2.75-.905-2.98-2.44h9.534c.04-.295.09-.508.09-1.017zm-9.574-1.576c.16-.763.913-2.207 2.89-2.207s2.73 1.444 2.89 2.207h-5.78zM20.754 6.894c-2.037 0-3.602.712-4.726 1.78V0L0 9.396v16.34l9.424-5.521c-2.79-.844-4.747-3.447-4.747-6.549 0-3.752 2.89-6.792 6.664-6.792 1.836 0 3.482.681 4.697 1.8a6.797 6.797 0 0 1 2.007 3.559H14.23c-.431-.875-1.184-1.8-2.75-1.8-1.796-.092-3 1.403-3 3.244 0 1.86 1.204 3.243 3 3.243 1.566 0 2.319-.925 2.73-1.708H18.055a6.931 6.931 0 0 1-2.058 3.518c1.124 1.099 2.71 1.83 4.778 1.83 4.626 0 6.854-3.69 6.854-6.843-.02-3.132-2.248-6.823-6.875-6.823zm0 10.098c-1.645 0-3.05-1.373-3.05-3.254 0-1.882 1.395-3.254 3.05-3.254 1.646 0 3.051 1.372 3.051 3.254 0 1.88-1.395 3.254-3.05 3.254z"/>
    </g>
</svg>
