<svg width="90" height="25" viewBox="0 0 90 25" xmlns="http://www.w3.org/2000/svg">
    <path d="M16.83 6.19h-5.306l-3.11 7.386L5.306 6.19H0c1.927 4.579 3.854 9.159 5.782 13.737L3.646 25h5.305c2.653-6.304 5.242-12.548 7.878-18.81zM84.29.04H90l-5.163 12.445h-5.71L84.29.039zm-3.76 13.645a3.215 3.215 0 0 1 3.22 3.212 3.215 3.215 0 0 1-3.22 3.21 3.215 3.215 0 0 1-3.218-3.21 3.215 3.215 0 0 1 3.219-3.212zm-11.226-7.87c3.998 0 7.24 3.234 7.24 7.222 0 3.988-3.242 7.221-7.24 7.221-3.997 0-7.238-3.233-7.238-7.221s3.24-7.221 7.238-7.221zm0 4.402a2.823 2.823 0 0 1 2.827 2.82 2.823 2.823 0 0 1-2.827 2.82 2.823 2.823 0 0 1-2.826-2.82 2.823 2.823 0 0 1 2.826-2.82zm-15.54-4.401c3.998 0 7.239 3.233 7.239 7.22 0 3.99-3.241 7.222-7.239 7.222-3.998 0-7.239-3.233-7.239-7.221s3.241-7.221 7.239-7.221zm0 4.401a2.823 2.823 0 0 1 2.827 2.82 2.823 2.823 0 0 1-2.827 2.82 2.823 2.823 0 0 1-2.827-2.82 2.823 2.823 0 0 1 2.827-2.82zM32.393 0h4.787v7.424s.837-1.608 3.604-1.608c2.766 0 4.54 1.214 4.576 6.186v8.106h-4.787v-8.106c0-.935-.76-1.693-1.697-1.693-.958 0-1.72.787-1.696 1.74v8.059h-4.787V0zm-6.518 6.19h4.787v13.918h-4.787v-1.312c-1.072.918-2.408 1.463-3.857 1.463-3.53 0-6.391-3.234-6.391-7.222 0-3.988 2.861-7.221 6.391-7.221 1.45 0 2.785.545 3.857 1.462V6.19zm-2.696 4.027a2.823 2.823 0 0 1 2.826 2.82 2.823 2.823 0 0 1-2.826 2.82 2.823 2.823 0 0 1-2.827-2.82 2.823 2.823 0 0 1 2.827-2.82z" fill="#0D1E30" fill-rule="evenodd"/>
</svg>
