<svg width="90" height="30" viewBox="0 0 90 30" xmlns="http://www.w3.org/2000/svg">
    <g fill="#0D1E30" fill-rule="nonzero">
        <path d="M11.084 0h.8c2.78.062 5.512 1.203 7.475 3.223-.724.756-1.464 1.48-2.174 2.236-1.102-1.018-2.431-1.804-3.88-2.082-2.145-.463-4.456-.046-6.253 1.203C5.09 5.89 3.76 8.11 3.474 10.486c-.318 2.344.332 4.811 1.827 6.63C6.735 18.89 8.925 20 11.19 20.079c2.114.123 4.319-.54 5.859-2.051 1.208-1.064 1.767-2.684 1.948-4.256-2.507 0-5.013.015-7.52 0v-3.177h10.555c.544 3.408-.241 7.248-2.778 9.684-1.692 1.727-4.032 2.745-6.418 2.945-2.31.232-4.696-.216-6.75-1.357a11.794 11.794 0 0 1-5.39-6.276c-.907-2.452-.922-5.227-.076-7.695a11.72 11.72 0 0 1 4.152-5.628C6.6.894 8.82.139 11.084 0zM71.638.802h3.231v22.02c-1.072 0-2.16.016-3.231-.015.015-7.325 0-14.665 0-22.005zM29.22 8.435c1.993-.385 4.153.046 5.799 1.265 1.495 1.079 2.537 2.775 2.854 4.626.407 2.143-.106 4.487-1.465 6.183-1.465 1.897-3.866 2.915-6.206 2.76-2.145-.123-4.229-1.218-5.497-3.006-1.435-1.974-1.782-4.688-.997-7.001.786-2.483 3.005-4.38 5.512-4.827m.453 2.93a4.05 4.05 0 0 0-2.114 1.372c-1.465 1.79-1.374 4.704.242 6.37.92.955 2.31 1.402 3.594 1.14 1.193-.216 2.234-1.033 2.808-2.112.997-1.835.71-4.364-.815-5.799-.982-.925-2.416-1.31-3.715-.971zM45.227 8.435c2.28-.447 4.772.2 6.478 1.835 2.778 2.544 3.08 7.31.71 10.24-1.435 1.85-3.76 2.868-6.056 2.76-2.19-.062-4.349-1.172-5.647-3.007-1.465-2.02-1.782-4.796-.952-7.156.83-2.405 3.005-4.24 5.467-4.672m.453 2.93a4.119 4.119 0 0 0-2.114 1.357c-1.45 1.758-1.39 4.626.166 6.307.92 1.002 2.355 1.496 3.684 1.218 1.178-.231 2.235-1.033 2.809-2.112.982-1.85.695-4.38-.846-5.814-.981-.925-2.416-1.295-3.7-.956zM58.802 9.33c1.737-1.11 4.047-1.42 5.92-.463.589.262 1.072.71 1.54 1.156.015-.416 0-.848.015-1.28 1.012.016 2.023 0 3.05.016v13.6c-.015 2.052-.528 4.226-1.978 5.722-1.585 1.65-4.017 2.159-6.206 1.82-2.34-.355-4.38-2.098-5.285-4.303.906-.447 1.857-.802 2.793-1.218.529 1.264 1.6 2.344 2.945 2.59 1.344.247 2.9-.092 3.775-1.233.936-1.172.936-2.776.89-4.21-.694.694-1.494 1.31-2.46 1.542-2.1.602-4.41-.139-6.026-1.588-1.63-1.45-2.597-3.686-2.506-5.906.045-2.514 1.434-4.935 3.533-6.246m3.126 1.974c-.921.154-1.782.679-2.37 1.404-1.42 1.727-1.42 4.487.014 6.183.816 1.003 2.13 1.558 3.398 1.419 1.193-.123 2.295-.895 2.884-1.959.997-1.804.83-4.256-.513-5.829a3.672 3.672 0 0 0-3.413-1.218zM78.75 10.116c1.812-1.727 4.606-2.313 6.931-1.403 2.205.848 3.61 2.991 4.319 5.196-3.277 1.388-6.539 2.76-9.815 4.148.453.88 1.147 1.681 2.083 2.005 1.314.478 2.885.309 3.987-.586.438-.34.785-.786 1.117-1.218.831.57 1.662 1.126 2.492 1.696-1.178 1.804-3.156 3.069-5.285 3.27-2.356.292-4.863-.633-6.388-2.514-2.506-2.96-2.265-7.926.56-10.594m1.615 2.853c-.514.755-.725 1.68-.71 2.59 2.19-.925 4.38-1.85 6.569-2.79-.363-.864-1.238-1.389-2.13-1.527-1.434-.263-2.929.524-3.73 1.727z"/>
    </g>
</svg>
