<svg width="130" height="34" viewBox="0 0 130 34" xmlns="http://www.w3.org/2000/svg">
    <g fill="#0D1E30" fill-rule="nonzero">
        <path d="m75.661 9.488 7.479-2.767-7.479-2.847V0L88.47 5.14v3.162l-12.809 5.14zM4.933 34C2.228 34 0 32.656 0 29.651v-.158c0-3.637 3.182-4.902 7.08-4.902h1.83v-.712c0-1.502-.636-2.372-2.227-2.372-1.432 0-2.148.79-2.228 1.898H.477c.319-3.321 2.944-4.903 6.445-4.903 3.58 0 6.205 1.503 6.205 5.219v9.963H9.07v-1.74C8.274 33.051 6.922 34 4.933 34zm3.978-5.219v-1.423H7.24c-2.069 0-3.103.554-3.103 1.898v.158c0 1.028.637 1.74 2.069 1.74 1.432-.08 2.705-.87 2.705-2.373zM22.595 34c-4.137 0-7.16-2.53-7.16-7.59v-.238c0-5.06 3.182-7.749 7.16-7.749 3.42 0 6.205 1.74 6.524 5.614H25.14c-.239-1.423-1.035-2.372-2.467-2.372-1.75 0-3.023 1.423-3.023 4.349v.474c0 3.005 1.114 4.35 3.023 4.35 1.432 0 2.467-1.029 2.705-2.69h3.82c-.24 3.48-2.547 5.852-6.604 5.852zm15.593 0c-4.137 0-7.16-2.53-7.16-7.59v-.238c0-5.06 3.183-7.749 7.16-7.749 3.422 0 6.206 1.74 6.524 5.614h-3.978c-.238-1.423-1.034-2.372-2.466-2.372-1.75 0-3.023 1.423-3.023 4.349v.474c0 3.005 1.114 4.35 3.023 4.35 1.432 0 2.466-1.029 2.705-2.69h3.819C44.553 31.629 42.246 34 38.188 34zm15.674 0c-4.297 0-7.24-2.53-7.24-7.512v-.316c0-4.981 3.103-7.749 7.16-7.749 3.74 0 6.842 2.056 6.842 7.037v1.82h-9.786c.16 2.687 1.353 3.715 3.103 3.715 1.591 0 2.467-.87 2.785-1.897h3.898C60.147 31.865 57.76 34 53.862 34zm-2.944-9.488h5.57c-.08-2.214-1.115-3.163-2.785-3.163-1.273.079-2.467.79-2.785 3.163zm12.252-5.693h4.217v2.214c.716-1.424 2.227-2.53 4.535-2.53 2.705 0 4.535 1.66 4.535 5.218v9.963H72.24v-9.33c0-1.74-.716-2.53-2.228-2.53-1.432 0-2.625.869-2.625 2.767v9.093H63.17V18.819zm21.004-4.507v4.507h2.864v3.083h-2.864v7.038c0 1.107.477 1.66 1.511 1.66.637 0 1.035-.08 1.433-.237v3.242c-.478.158-1.353.316-2.387.316-3.262 0-4.774-1.502-4.774-4.507v-7.512h-1.75V18.82h1.75V16.05l4.217-1.74zm18.617 19.372h-4.137V31.47c-.716 1.423-2.148 2.53-4.376 2.53-2.705 0-4.694-1.66-4.694-5.14V18.82H93.8v9.488c0 1.74.717 2.53 2.149 2.53s2.625-.949 2.625-2.767v-9.251h4.217v14.865zm3.103-14.865h4.216v2.767c.875-1.977 2.307-2.926 4.535-2.926v4.112c-2.864 0-4.535.87-4.535 3.321v7.67h-4.216V18.819zM123.158 34c-4.296 0-7.24-2.53-7.24-7.512v-.316c0-4.981 3.103-7.749 7.16-7.749 3.74 0 6.842 2.056 6.842 7.037v1.82h-9.706c.16 2.687 1.353 3.715 3.103 3.715 1.591 0 2.466-.87 2.785-1.897H130c-.636 2.767-2.944 4.902-6.842 4.902zm-3.023-9.488h5.648c-.08-2.214-1.113-3.163-2.784-3.163-1.273.079-2.467.79-2.864 3.163z"/>
    </g>
</svg>
